<svg xmlns="http://www.w3.org/2000/svg" viewBox="0 0 292 146"><defs><style>.cls-1{fill:none;}.cls-2{fill:#eda025;}.cls-3{fill:#a42827;}.cls-4{font-size:20px;fill:#b3b3b3;font-family:GillSansMT-Bold, Gill Sans MT;font-weight:700;}.cls-5{fill:#d5d5d5;}.cls-6{font-size:50px;font-family:Impact;}</style></defs><title>logo-webRecurso 22600px</title><g id="Capa_2" data-name="Capa 2"><g id="iconos"><rect class="cls-1" width="292" height="146"/><path class="cls-2" d="M98.13,12.26a66.31,66.31,0,0,0-49.75-1.1A86.86,86.86,0,0,0,46,19.92c-9.55,44.71,15.22,93.26,59.93,102.82q2.58.56,5.16.94c1.21.18,1.7-1.1.77-1.92-22-19.45-29.94-54-23.38-84.71A82.46,82.46,0,0,1,98.13,12.26Z"/><path class="cls-3" d="M113.3,21.3a66.2,66.2,0,0,0-2.19,101.55,82.86,82.86,0,0,1-105-43.54,66.12,66.12,0,0,0,107.16,45.32l.08.07a66.22,66.22,0,0,0,0-103.4Z"/><text class="cls-4" transform="translate(159.21 46.18)">SCHOLAR<tspan class="cls-5" x="103.12" y="0"> </tspan></text><text class="cls-6" transform="translate(159.21 100.11)">HOTEL </text></g></g></svg>